# xmcd CD database file
# Copyright (C) 1993-1998 Ti Kan
#
# Track frame offsets:
#  150
#  14260
#  32860
#  45910
#  58060
#  77260
#  88285
#  101185
#  115210
#  131482
#  142435
#  156307
#  167182
#
# Disc length: 2355 seconds
#
# Revision: 1
# Processed by: cddbd v1.4b41PL1 Copyright (c) Steve Scherf et al.
# Submitted via: CDWizzard Release:4.32
#
DISCID=b209310d
DTITLE=George Jones and Tammy Wynette  - The Best of George Jones and Tammy W
DTITLE=ynette-Disk One
DYEAR=1900
DGENRE=
TTITLE0=They're Playing Our Song
TTITLE1=One
TTITLE2=Southern California
TTITLE3=God's Gonna Get Cha (for That)
TTITLE4=Whatever Happened to Us
TTITLE5=(We're Not) the Jet Set
TTITLE6=Old Fashioned Singing
TTITLE7=Will You Travel Down this Road With Me
TTITLE8=My Elusive Dreams
TTITLE9=A Pair of Old Sneakers
TTITLE10=(She's Just) an Old Love Turned Memory
TTITLE11=We Loved It that Way
TTITLE12=Did You Ever
EXTD=
EXTT0=George Jones and Tammy Wynette 
EXTT1=George Jones and Tammy Wynette 
EXTT2=George Jones and Tammy Wynette 
EXTT3=George Jones and Tammy Wynette 
EXTT4=George Jones and Tammy Wynette 
EXTT5=George Jones and Tammy Wynette 
EXTT6=George Jones and Tammy Wynette 
EXTT7=George Jones and Tammy Wynette 
EXTT8=George Jones and Tammy Wynette 
EXTT9=George Jones and Tammy Wynette 
EXTT10=George Jones and Tammy Wynette 
EXTT11=George Jones and Tammy Wynette 
EXTT12=George Jones and Tammy Wynette 
PLAYORDER=
